STARTFONT 2.1
COMMENT 
COMMENT Converted from TrueType font "cour.ttf" by "ttf2bdf.exe 2.2".
COMMENT 
FONT -FreeType-Courier New-Medium-R-Normal--21-120-128-128-P-98-ISO10646-1
SIZE 12 128 128
FONTBOUNDINGBOX 8 35 -1 -6
STARTPROPERTIES 27
FAMILY_NAME "Courier New"
DEFAULT_CHAR -1
FOUNDRY "FreeType"
COPYRIGHT "Typeface © The Monotype Corporation plc. Data © The Monotype Corporation plc/Type Solutions Inc. 1990-1994. All Rights Reserved"
CODEPAGE "MS Windows 1250 Central European"
ENC_MODE 2
CREATION_YEAR 2001
WEIGHT_NAME "Medium"
SLANT "R"
SETWIDTH_NAME "Normal"
SPACING "P"
HI_VERSION 1
FONTNAME_REGISTRY "-"
CHARSET_REGISTRY "ISO10646"
CHARSET_ENCODING "1"
BREAK_CHAR 32
PIXEL_SIZE 21
POINT_SIZE 120
FONT_ASCENT 30
FONT_DESCENT 6
RESOLUTION_X 128
RESOLUTION_Y 128
AVERAGE_WIDTH 98
X_HEIGHT 15
CAP_HEIGHT 23
_TTF_FONTFILE "cour.ttf"
_TTF_PSNAME "CourierNewPSMT"
ENDPROPERTIES
CHARS 191
STARTCHAR 0020.uni0020
ENCODING 32
SWIDTH 281 0
DWIDTH 6 0
BBX 0 0 0 0
BITMAP
ENDCHAR
STARTCHAR 0021.uni0021
ENCODING 33
SWIDTH 304 0
DWIDTH 6 0
BBX 4 23 1 0
BITMAP
6000
6000
6000
6000
6000
6000
6000
6000
6000
6000
6000
6000
6000
6000
6000
6000
6000
6000
0000
0000
6000
F000
6000
ENDCHAR
STARTCHAR 0022.uni0022
ENCODING 34
SWIDTH 304 0
DWIDTH 6 0
BBX 6 6 0 17
BITMAP
D800
D800
D800
6C00
6C00
6C00
ENDCHAR
STARTCHAR 0023.uni0023
ENCODING 35
SWIDTH 304 0
DWIDTH 6 0
BBX 8 21 -1 -2
BITMAP
3600
3600
3600
3600
3600
FF00
FF00
FF00
6600
6600
6600
6600
FF00
FF00
FF00
6C00
6C00
6C00
6C00
6C00
6C00
ENDCHAR
STARTCHAR 0024.uni0024
ENCODING 36
SWIDTH 304 0
DWIDTH 6 0
BBX 6 32 0 -4
BITMAP
2800
2800
2800
2800
2800
3800
7C00
7C00
EC00
EC00
E800
E800
E800
6800
7800
3800
3C00
3C00
2C00
2C00
2C00
EC00
EC00
EC00
7C00
7C00
7C00
3800
2800
2800
2800
2800
ENDCHAR
STARTCHAR 0025.uni0025
ENCODING 37
SWIDTH 304 0
DWIDTH 6 0
BBX 7 16 -1 0
BITMAP
7000
5600
7600
6E00
0C00
0C00
1C00
1800
1800
3800
3000
3000
6600
6E00
EA00
CE00
ENDCHAR
STARTCHAR 0026.uni0026
ENCODING 38
SWIDTH 304 0
DWIDTH 6 0
BBX 6 23 0 0
BITMAP
3000
7000
7800
7800
CC00
CC00
CC00
F800
F800
F000
F000
6400
6C00
7C00
7C00
7C00
F800
C800
CC00
FC00
7C00
7C00
3400
ENDCHAR
STARTCHAR 0027.uni0027
ENCODING 39
SWIDTH 304 0
DWIDTH 6 0
BBX 3 8 1 15
BITMAP
E000
E000
E000
E000
6000
6000
6000
6000
ENDCHAR
STARTCHAR 0028.uni0028
ENCODING 40
SWIDTH 304 0
DWIDTH 6 0
BBX 5 29 1 -3
BITMAP
3800
3800
3800
3800
7800
7000
7000
7000
E000
E000
E000
E000
E000
E000
E000
E000
E000
E000
E000
E000
E000
7000
7000
7000
7000
3800
3800
3800
3800
ENDCHAR
STARTCHAR 0029.uni0029
ENCODING 41
SWIDTH 304 0
DWIDTH 6 0
BBX 5 29 1 -3
BITMAP
E000
E000
E000
E000
7000
7000
7000
7000
3800
3800
3800
3800
3800
3800
3800
3800
3800
3800
3800
3800
3800
7000
7000
7000
7000
E000
E000
E000
E000
ENDCHAR
STARTCHAR 002A.uni002A
ENCODING 42
SWIDTH 304 0
DWIDTH 6 0
BBX 6 11 0 4
BITMAP
B400
B400
7800
7800
FC00
FC00
FC00
7800
7800
B400
B400
ENDCHAR
STARTCHAR 002B.uni002B
ENCODING 43
SWIDTH 304 0
DWIDTH 6 0
BBX 6 13 0 1
BITMAP
3000
3000
3000
3000
3000
FC00
FC00
FC00
3000
3000
3000
3000
3000
ENDCHAR
STARTCHAR 002C.uni002C
ENCODING 44
SWIDTH 304 0
DWIDTH 6 0
BBX 5 10 0 -4
BITMAP
3800
3800
3800
3800
7000
7000
6000
6000
E000
C000
ENDCHAR
STARTCHAR 002D.uni002D
ENCODING 45
SWIDTH 304 0
DWIDTH 6 0
BBX 6 4 0 7
BITMAP
FC00
FC00
FC00
FC00
ENDCHAR
STARTCHAR 002E.uni002E
ENCODING 46
SWIDTH 304 0
DWIDTH 6 0
BBX 4 5 1 0
BITMAP
6000
F000
F000
F000
6000
ENDCHAR
STARTCHAR 002F.uni002F
ENCODING 47
SWIDTH 304 0
DWIDTH 6 0
BBX 6 25 0 0
BITMAP
0C00
0C00
0C00
0C00
0C00
1800
1800
1800
1800
1800
3000
3000
3000
3000
3000
6000
6000
6000
6000
6000
C000
C000
C000
C000
C000
ENDCHAR
STARTCHAR 0030.uni0030
ENCODING 48
SWIDTH 304 0
DWIDTH 6 0
BBX 6 23 0 0
BITMAP
3000
7800
7800
FC00
CC00
CC00
CC00
CC00
CC00
CC00
CC00
CC00
CC00
CC00
CC00
CC00
CC00
CC00
CC00
FC00
7800
7800
3000
ENDCHAR
STARTCHAR 0031.uni0031
ENCODING 49
SWIDTH 304 0
DWIDTH 6 0
BBX 6 23 0 0
BITMAP
3800
3800
3800
7800
7800
7800
F800
F800
D800
D800
1800
1800
1800
1800
1800
1800
1800
1800
1800
1800
1800
7C00
7C00
ENDCHAR
STARTCHAR 0032.uni0032
ENCODING 50
SWIDTH 304 0
DWIDTH 6 0
BBX 6 23 0 0
BITMAP
3000
7800
FC00
EC00
CC00
CC00
CC00
0C00
0C00
0C00
0C00
1C00
1800
3800
3000
7000
6000
E000
C000
C000
FC00
FC00
FC00
ENDCHAR
STARTCHAR 0033.uni0033
ENCODING 51
SWIDTH 304 0
DWIDTH 6 0
BBX 6 23 0 0
BITMAP
3800
7C00
FC00
EC00
CC00
0C00
0C00
0C00
0C00
1C00
3800
3800
3C00
1C00
0C00
0C00
0C00
0C00
CC00
EC00
FC00
7C00
3800
ENDCHAR
STARTCHAR 0034.uni0034
ENCODING 52
SWIDTH 304 0
DWIDTH 6 0
BBX 6 23 0 0
BITMAP
0C00
0C00
1C00
1C00
1C00
3C00
3C00
3C00
6C00
6C00
6C00
CC00
FC00
FC00
FC00
0C00
0C00
0C00
0C00
0C00
0C00
0C00
0C00
ENDCHAR
STARTCHAR 0035.uni0035
ENCODING 53
SWIDTH 304 0
DWIDTH 6 0
BBX 6 23 0 0
BITMAP
FC00
FC00
FC00
C000
C000
C000
C000
C000
F800
FC00
FC00
FC00
DC00
CC00
0C00
0C00
0C00
CC00
DC00
FC00
FC00
7C00
3800
ENDCHAR
STARTCHAR 0036.uni0036
ENCODING 54
SWIDTH 304 0
DWIDTH 6 0
BBX 6 23 0 0
BITMAP
3000
7800
FC00
FC00
CC00
CC00
C000
C000
C000
C000
F800
FC00
FC00
CC00
CC00
CC00
CC00
CC00
CC00
CC00
FC00
7800
3000
ENDCHAR
STARTCHAR 0037.uni0037
ENCODING 55
SWIDTH 304 0
DWIDTH 6 0
BBX 6 23 0 0
BITMAP
FC00
FC00
FC00
8C00
0C00
0C00
0C00
1800
1800
1800
1800
1800
1800
3000
3000
3000
3000
3000
3000
6000
6000
F000
F000
ENDCHAR
STARTCHAR 0038.uni0038
ENCODING 56
SWIDTH 304 0
DWIDTH 6 0
BBX 6 23 0 0
BITMAP
3000
7800
7800
FC00
CC00
CC00
CC00
CC00
CC00
CC00
7800
7800
7800
CC00
CC00
CC00
CC00
CC00
CC00
FC00
7800
7800
3000
ENDCHAR
STARTCHAR 0039.uni0039
ENCODING 57
SWIDTH 304 0
DWIDTH 6 0
BBX 6 23 0 0
BITMAP
3000
7800
FC00
FC00
CC00
CC00
CC00
CC00
CC00
FC00
FC00
7C00
0C00
0C00
0C00
0C00
0C00
CC00
CC00
FC00
FC00
7800
3000
ENDCHAR
STARTCHAR 003A.uni003A
ENCODING 58
SWIDTH 304 0
DWIDTH 6 0
BBX 3 13 2 2
BITMAP
4000
E000
E000
E000
4000
0000
0000
0000
4000
E000
E000
E000
4000
ENDCHAR
STARTCHAR 003B.uni003B
ENCODING 59
SWIDTH 304 0
DWIDTH 6 0
BBX 5 17 0 -4
BITMAP
3800
3800
3800
3800
0000
0000
0000
3800
3800
3800
3800
7000
7000
7000
6000
E000
C000
ENDCHAR
STARTCHAR 003C.uni003C
ENCODING 60
SWIDTH 304 0
DWIDTH 6 0
BBX 6 13 0 1
BITMAP
0400
0C00
1C00
3800
7000
E000
C000
E000
7000
3800
1C00
0C00
0400
ENDCHAR
STARTCHAR 003D.uni003D
ENCODING 61
SWIDTH 304 0
DWIDTH 6 0
BBX 6 9 0 5
BITMAP
FC00
FC00
FC00
0000
0000
0000
FC00
FC00
FC00
ENDCHAR
STARTCHAR 003E.uni003E
ENCODING 62
SWIDTH 304 0
DWIDTH 6 0
BBX 6 13 0 1
BITMAP
8000
C000
E000
7000
3800
1C00
0C00
1C00
3800
7000
E000
C000
8000
ENDCHAR
STARTCHAR 003F.uni003F
ENCODING 63
SWIDTH 304 0
DWIDTH 6 0
BBX 6 23 0 0
BITMAP
3000
7800
FC00
CC00
CC00
CC00
0C00
0C00
0C00
0C00
1C00
3C00
3800
3000
3000
3000
3000
0000
3000
7800
7800
7800
3000
ENDCHAR
STARTCHAR 0040.uni0040
ENCODING 64
SWIDTH 304 0
DWIDTH 6 0
BBX 6 19 0 0
BITMAP
3800
7800
7C00
6C00
CC00
DC00
DC00
D400
D400
D400
D400
DC00
DC00
CC00
C000
E000
7800
7800
3800
ENDCHAR
STARTCHAR 0041.uni0041
ENCODING 65
SWIDTH 304 0
DWIDTH 6 0
BBX 7 23 0 0
BITMAP
3800
3800
3800
3800
3800
7C00
6C00
6C00
6C00
6C00
6C00
6C00
6C00
6C00
6C00
FE00
FE00
FE00
C600
C600
C600
C600
C600
ENDCHAR
STARTCHAR 0042.uni0042
ENCODING 66
SWIDTH 304 0
DWIDTH 6 0
BBX 6 23 0 0
BITMAP
F000
F800
F800
DC00
CC00
CC00
CC00
DC00
F800
F800
FC00
DC00
CC00
CC00
CC00
CC00
CC00
CC00
CC00
DC00
FC00
FC00
F800
ENDCHAR
STARTCHAR 0043.uni0043
ENCODING 67
SWIDTH 304 0
DWIDTH 6 0
BBX 6 23 0 0
BITMAP
3000
7800
FC00
EC00
CC00
CC00
CC00
CC00
C000
C000
C000
C000
C000
C000
C000
CC00
CC00
CC00
CC00
EC00
FC00
7800
3000
ENDCHAR
STARTCHAR 0044.uni0044
ENCODING 68
SWIDTH 304 0
DWIDTH 6 0
BBX 6 23 0 0
BITMAP
F000
F800
FC00
DC00
DC00
CC00
CC00
CC00
CC00
CC00
CC00
CC00
CC00
CC00
CC00
CC00
CC00
CC00
DC00
DC00
FC00
F800
F000
ENDCHAR
STARTCHAR 0045.uni0045
ENCODING 69
SWIDTH 304 0
DWIDTH 6 0
BBX 6 23 0 0
BITMAP
FC00
FC00
C000
C000
C000
C000
C000
C000
C000
F800
F800
C000
C000
C000
C000
C000
C000
C000
C000
C000
C000
FC00
FC00
ENDCHAR
STARTCHAR 0046.uni0046
ENCODING 70
SWIDTH 304 0
DWIDTH 6 0
BBX 6 23 0 0
BITMAP
FC00
FC00
C000
C000
C000
C000
C000
C000
C000
F800
F800
C000
C000
C000
C000
C000
C000
C000
C000
C000
C000
C000
C000
ENDCHAR
STARTCHAR 0047.uni0047
ENCODING 71
SWIDTH 304 0
DWIDTH 6 0
BBX 6 23 0 0
BITMAP
3000
7800
FC00
EC00
CC00
CC00
CC00
CC00
C000
C000
C000
C000
DC00
DC00
DC00
CC00
CC00
CC00
CC00
EC00
FC00
7800
3000
ENDCHAR
STARTCHAR 0048.uni0048
ENCODING 72
SWIDTH 304 0
DWIDTH 6 0
BBX 6 23 0 0
BITMAP
CC00
CC00
CC00
CC00
CC00
CC00
CC00
CC00
CC00
CC00
FC00
FC00
FC00
CC00
CC00
CC00
CC00
CC00
CC00
CC00
CC00
CC00
CC00
ENDCHAR
STARTCHAR 0049.uni0049
ENCODING 73
SWIDTH 304 0
DWIDTH 6 0
BBX 6 23 0 0
BITMAP
FC00
FC00
3000
3000
3000
3000
3000
3000
3000
3000
3000
3000
3000
3000
3000
3000
3000
3000
3000
3000
3000
FC00
FC00
ENDCHAR
STARTCHAR 004A.uni004A
ENCODING 74
SWIDTH 304 0
DWIDTH 6 0
BBX 6 23 0 0
BITMAP
FC00
FC00
FC00
CC00
CC00
CC00
0C00
0C00
0C00
0C00
0C00
0C00
0C00
0C00
0C00
CC00
CC00
CC00
CC00
EC00
7C00
7C00
3800
ENDCHAR
STARTCHAR 004B.uni004B
ENCODING 75
SWIDTH 304 0
DWIDTH 6 0
BBX 6 23 0 0
BITMAP
CC00
CC00
CC00
CC00
CC00
CC00
D800
D800
D800
D800
D800
F800
F000
F000
F800
E800
E800
CC00
CC00
CC00
CC00
CC00
CC00
ENDCHAR
STARTCHAR 004C.uni004C
ENCODING 76
SWIDTH 304 0
DWIDTH 6 0
BBX 6 23 0 0
BITMAP
C000
C000
C000
C000
C000
C000
C000
C000
C000
C000
C000
C000
C000
C000
C000
C000
C000
C000
C000
C000
C000
FC00
FC00
ENDCHAR
STARTCHAR 004D.uni004D
ENCODING 77
SWIDTH 304 0
DWIDTH 6 0
BBX 6 23 0 0
BITMAP
CC00
CC00
FC00
FC00
FC00
FC00
FC00
FC00
CC00
CC00
CC00
CC00
CC00
CC00
CC00
CC00
CC00
CC00
CC00
CC00
CC00
CC00
CC00
ENDCHAR
STARTCHAR 004E.uni004E
ENCODING 78
SWIDTH 304 0
DWIDTH 6 0
BBX 6 23 0 0
BITMAP
CC00
CC00
CC00
CC00
EC00
EC00
EC00
EC00
FC00
FC00
DC00
DC00
DC00
DC00
CC00
CC00
CC00
CC00
CC00
CC00
CC00
CC00
CC00
ENDCHAR
STARTCHAR 004F.uni004F
ENCODING 79
SWIDTH 304 0
DWIDTH 6 0
BBX 6 23 0 0
BITMAP
3000
7800
7800
FC00
CC00
CC00
CC00
CC00
CC00
CC00
CC00
CC00
CC00
CC00
CC00
CC00
CC00
CC00
CC00
CC00
FC00
7800
3000
ENDCHAR
STARTCHAR 0050.uni0050
ENCODING 80
SWIDTH 304 0
DWIDTH 6 0
BBX 6 23 0 0
BITMAP
F800
FC00
FC00
DC00
CC00
CC00
CC00
CC00
CC00
DC00
FC00
FC00
F800
C000
C000
C000
C000
C000
C000
C000
C000
C000
C000
ENDCHAR
STARTCHAR 0051.uni0051
ENCODING 81
SWIDTH 304 0
DWIDTH 6 0
BBX 6 23 0 0
BITMAP
3000
7800
7800
FC00
CC00
CC00
CC00
CC00
CC00
CC00
CC00
CC00
CC00
CC00
CC00
CC00
CC00
EC00
FC00
DC00
FC00
7800
3C00
ENDCHAR
STARTCHAR 0052.uni0052
ENCODING 82
SWIDTH 304 0
DWIDTH 6 0
BBX 6 23 0 0
BITMAP
F800
FC00
FC00
DC00
CC00
CC00
CC00
CC00
CC00
DC00
FC00
FC00
F800
D800
D800
D800
D800
D800
D800
D800
CC00
CC00
CC00
ENDCHAR
STARTCHAR 0053.uni0053
ENCODING 83
SWIDTH 304 0
DWIDTH 6 0
BBX 6 23 0 0
BITMAP
3800
7C00
7C00
CC00
CC00
C000
C000
E000
6000
7000
3800
1C00
1C00
0C00
0C00
0C00
CC00
CC00
CC00
CC00
FC00
7C00
3800
ENDCHAR
STARTCHAR 0054.uni0054
ENCODING 84
SWIDTH 304 0
DWIDTH 6 0
BBX 6 23 0 0
BITMAP
FC00
FC00
FC00
3000
3000
3000
3000
3000
3000
3000
3000
3000
3000
3000
3000
3000
3000
3000
3000
3000
3000
3000
3000
ENDCHAR
STARTCHAR 0055.uni0055
ENCODING 85
SWIDTH 304 0
DWIDTH 6 0
BBX 6 23 0 0
BITMAP
CC00
CC00
CC00
CC00
CC00
CC00
CC00
CC00
CC00
CC00
CC00
CC00
CC00
CC00
CC00
CC00
CC00
CC00
CC00
FC00
7800
7800
3000
ENDCHAR
STARTCHAR 0056.uni0056
ENCODING 86
SWIDTH 304 0
DWIDTH 6 0
BBX 6 23 0 0
BITMAP
CC00
CC00
CC00
CC00
CC00
CC00
CC00
CC00
CC00
CC00
CC00
CC00
CC00
CC00
CC00
FC00
7800
7800
7800
3000
3000
3000
3000
ENDCHAR
STARTCHAR 0057.uni0057
ENCODING 87
SWIDTH 304 0
DWIDTH 6 0
BBX 7 23 0 0
BITMAP
C600
C600
C600
C600
C600
C600
C600
C600
C600
C600
C600
D600
D600
D600
FE00
7C00
7C00
7C00
6C00
6C00
6C00
6C00
6C00
ENDCHAR
STARTCHAR 0058.uni0058
ENCODING 88
SWIDTH 304 0
DWIDTH 6 0
BBX 6 23 0 0
BITMAP
CC00
CC00
CC00
CC00
CC00
4800
7800
7800
7800
3000
3000
3000
3000
7800
7800
7800
4800
CC00
CC00
CC00
CC00
CC00
CC00
ENDCHAR
STARTCHAR 0059.uni0059
ENCODING 89
SWIDTH 304 0
DWIDTH 6 0
BBX 6 23 0 0
BITMAP
CC00
CC00
CC00
CC00
4800
4800
7800
7800
7800
3000
3000
3000
3000
3000
3000
3000
3000
3000
3000
3000
3000
3000
3000
ENDCHAR
STARTCHAR 005A.uni005A
ENCODING 90
SWIDTH 304 0
DWIDTH 6 0
BBX 6 23 0 0
BITMAP
FC00
FC00
FC00
0C00
0C00
0C00
0C00
1800
1800
1800
1800
3000
3000
3000
3000
6000
6000
6000
6000
C000
FC00
FC00
FC00
ENDCHAR
STARTCHAR 005B.uni005B
ENCODING 91
SWIDTH 304 0
DWIDTH 6 0
BBX 5 26 1 -3
BITMAP
F800
F800
C000
C000
C000
C000
C000
C000
C000
C000
C000
C000
C000
C000
C000
C000
C000
C000
C000
C000
C000
C000
C000
C000
F800
F800
ENDCHAR
STARTCHAR 005C.uni005C
ENCODING 92
SWIDTH 304 0
DWIDTH 6 0
BBX 6 25 0 0
BITMAP
C000
C000
C000
C000
C000
6000
6000
6000
6000
6000
3000
3000
3000
3000
3000
1800
1800
1800
1800
1800
0C00
0C00
0C00
0C00
0C00
ENDCHAR
STARTCHAR 005D.uni005D
ENCODING 93
SWIDTH 304 0
DWIDTH 6 0
BBX 5 26 0 -3
BITMAP
F800
F800
1800
1800
1800
1800
1800
1800
1800
1800
1800
1800
1800
1800
1800
1800
1800
1800
1800
1800
1800
1800
1800
1800
F800
F800
ENDCHAR
STARTCHAR 005E.uni005E
ENCODING 94
SWIDTH 304 0
DWIDTH 6 0
BBX 6 8 0 15
BITMAP
3000
3000
7800
7800
FC00
CC00
CC00
CC00
ENDCHAR
STARTCHAR 005F.uni005F
ENCODING 95
SWIDTH 304 0
DWIDTH 6 0
BBX 6 3 0 -5
BITMAP
FC00
FC00
FC00
ENDCHAR
STARTCHAR 0060.uni0060
ENCODING 96
SWIDTH 304 0
DWIDTH 6 0
BBX 4 5 1 18
BITMAP
C000
E000
E000
7000
3000
ENDCHAR
STARTCHAR 0061.uni0061
ENCODING 97
SWIDTH 304 0
DWIDTH 6 0
BBX 6 15 0 0
BITMAP
3800
7C00
FC00
CC00
8C00
3C00
7C00
7C00
CC00
CC00
CC00
CC00
FC00
7C00
3400
ENDCHAR
STARTCHAR 0062.uni0062
ENCODING 98
SWIDTH 304 0
DWIDTH 6 0
BBX 6 23 0 0
BITMAP
C000
C000
C000
C000
C000
C000
C000
C000
F000
F800
FC00
DC00
CC00
CC00
CC00
CC00
CC00
CC00
CC00
DC00
FC00
F800
B000
ENDCHAR
STARTCHAR 0063.uni0063
ENCODING 99
SWIDTH 304 0
DWIDTH 6 0
BBX 6 15 0 0
BITMAP
3800
7800
FC00
EC00
CC00
CC00
C000
C000
C000
CC00
CC00
EC00
FC00
7800
3800
ENDCHAR
STARTCHAR 0064.uni0064
ENCODING 100
SWIDTH 304 0
DWIDTH 6 0
BBX 6 23 0 0
BITMAP
0C00
0C00
0C00
0C00
0C00
0C00
0C00
0C00
3C00
7C00
FC00
EC00
CC00
CC00
CC00
CC00
CC00
CC00
CC00
EC00
FC00
7C00
3400
ENDCHAR
STARTCHAR 0065.uni0065
ENCODING 101
SWIDTH 304 0
DWIDTH 6 0
BBX 6 15 0 0
BITMAP
3800
7C00
FC00
CC00
CC00
CC00
FC00
FC00
FC00
C000
C000
EC00
FC00
7C00
3800
ENDCHAR
STARTCHAR 0066.uni0066
ENCODING 102
SWIDTH 304 0
DWIDTH 6 0
BBX 6 23 0 0
BITMAP
1C00
3C00
3000
3000
3000
3000
3000
3000
FC00
FC00
3000
3000
3000
3000
3000
3000
3000
3000
3000
3000
3000
FC00
FC00
ENDCHAR
STARTCHAR 0067.uni0067
ENCODING 103
SWIDTH 304 0
DWIDTH 6 0
BBX 6 21 0 -6
BITMAP
3400
7C00
FC00
EC00
CC00
CC00
CC00
CC00
CC00
CC00
CC00
EC00
FC00
7C00
3C00
0C00
0C00
8C00
FC00
FC00
7800
ENDCHAR
STARTCHAR 0068.uni0068
ENCODING 104
SWIDTH 304 0
DWIDTH 6 0
BBX 7 23 0 0
BITMAP
C000
C000
C000
C000
C000
C000
C000
C000
D800
FC00
FC00
EE00
C600
C600
C600
C600
C600
C600
C600
C600
C600
C600
C600
ENDCHAR
STARTCHAR 0069.uni0069
ENCODING 105
SWIDTH 304 0
DWIDTH 6 0
BBX 6 20 0 0
BITMAP
3000
7800
3000
0000
0000
7000
F000
B000
3000
3000
3000
3000
3000
3000
3000
3000
3000
3000
FC00
FC00
ENDCHAR
STARTCHAR 006A.uni006A
ENCODING 106
SWIDTH 304 0
DWIDTH 6 0
BBX 6 26 0 -6
BITMAP
3000
7800
3000
0000
0000
FC00
FC00
0C00
0C00
0C00
0C00
0C00
0C00
0C00
0C00
0C00
0C00
0C00
0C00
0C00
0C00
1C00
1800
3800
F000
E000
ENDCHAR
STARTCHAR 006B.uni006B
ENCODING 107
SWIDTH 304 0
DWIDTH 6 0
BBX 7 23 0 0
BITMAP
C000
C000
C000
C000
C000
C000
C000
C000
CC00
CC00
EC00
F800
F800
F000
F000
D800
D800
CC00
CC00
C600
C600
C600
C600
ENDCHAR
STARTCHAR 006C.uni006C
ENCODING 108
SWIDTH 304 0
DWIDTH 6 0
BBX 6 23 0 0
BITMAP
F000
F000
3000
3000
3000
3000
3000
3000
3000
3000
3000
3000
3000
3000
3000
3000
3000
3000
3000
3000
3000
FC00
FC00
ENDCHAR
STARTCHAR 006D.uni006D
ENCODING 109
SWIDTH 304 0
DWIDTH 6 0
BBX 7 15 0 0
BITMAP
A800
FC00
FE00
FE00
D600
D600
D600
D600
D600
D600
D600
D600
D600
D600
D600
ENDCHAR
STARTCHAR 006E.uni006E
ENCODING 110
SWIDTH 304 0
DWIDTH 6 0
BBX 6 15 0 0
BITMAP
D800
F800
FC00
EC00
CC00
CC00
CC00
CC00
CC00
CC00
CC00
CC00
CC00
CC00
CC00
ENDCHAR
STARTCHAR 006F.uni006F
ENCODING 111
SWIDTH 304 0
DWIDTH 6 0
BBX 6 15 0 0
BITMAP
3000
7800
FC00
FC00
CC00
CC00
CC00
CC00
CC00
CC00
CC00
FC00
FC00
7800
3000
ENDCHAR
STARTCHAR 0070.uni0070
ENCODING 112
SWIDTH 304 0
DWIDTH 6 0
BBX 6 21 0 -6
BITMAP
B000
F800
F800
DC00
CC00
CC00
CC00
CC00
CC00
CC00
CC00
DC00
F800
F800
F000
C000
C000
C000
C000
C000
C000
ENDCHAR
STARTCHAR 0071.uni0071
ENCODING 113
SWIDTH 304 0
DWIDTH 6 0
BBX 6 21 0 -6
BITMAP
3400
7C00
FC00
EC00
CC00
CC00
CC00
CC00
CC00
CC00
CC00
EC00
FC00
7C00
3C00
0C00
0C00
0C00
0C00
0C00
0C00
ENDCHAR
STARTCHAR 0072.uni0072
ENCODING 114
SWIDTH 304 0
DWIDTH 6 0
BBX 6 15 0 0
BITMAP
B800
FC00
FC00
DC00
CC00
C000
C000
C000
C000
C000
C000
C000
C000
C000
C000
ENDCHAR
STARTCHAR 0073.uni0073
ENCODING 115
SWIDTH 304 0
DWIDTH 6 0
BBX 6 15 0 0
BITMAP
3800
7C00
FC00
CC00
C000
E000
7800
3C00
1C00
0C00
CC00
CC00
FC00
7C00
3800
ENDCHAR
STARTCHAR 0074.uni0074
ENCODING 116
SWIDTH 304 0
DWIDTH 6 0
BBX 6 23 0 0
BITMAP
6000
6000
6000
6000
6000
6000
6000
6000
F800
F800
F800
6000
6000
6000
6000
6000
6000
6C00
6C00
6C00
7C00
7C00
3800
ENDCHAR
STARTCHAR 0075.uni0075
ENCODING 117
SWIDTH 304 0
DWIDTH 6 0
BBX 6 15 0 0
BITMAP
CC00
CC00
CC00
CC00
CC00
CC00
CC00
CC00
CC00
CC00
CC00
EC00
FC00
7C00
3400
ENDCHAR
STARTCHAR 0076.uni0076
ENCODING 118
SWIDTH 304 0
DWIDTH 6 0
BBX 6 15 0 0
BITMAP
CC00
CC00
CC00
CC00
CC00
CC00
CC00
CC00
CC00
CC00
4800
7800
7800
7800
7800
ENDCHAR
STARTCHAR 0077.uni0077
ENCODING 119
SWIDTH 304 0
DWIDTH 6 0
BBX 7 15 0 0
BITMAP
D600
D600
D600
D600
D600
5400
5400
5400
5400
7C00
7C00
7C00
7C00
3800
3800
ENDCHAR
STARTCHAR 0078.uni0078
ENCODING 120
SWIDTH 304 0
DWIDTH 6 0
BBX 6 15 0 0
BITMAP
CC00
CC00
CC00
CC00
7800
7800
3000
3000
3000
7800
7800
CC00
CC00
CC00
CC00
ENDCHAR
STARTCHAR 0079.uni0079
ENCODING 121
SWIDTH 304 0
DWIDTH 6 0
BBX 6 21 0 -6
BITMAP
CC00
CC00
CC00
CC00
CC00
CC00
EC00
EC00
6C00
6800
7800
7800
3800
3800
3800
1800
1800
1800
7800
7000
7000
ENDCHAR
STARTCHAR 007A.uni007A
ENCODING 122
SWIDTH 304 0
DWIDTH 6 0
BBX 6 15 0 0
BITMAP
FC00
FC00
0C00
0C00
1C00
1800
1800
3800
3000
7000
6000
E000
C000
FC00
FC00
ENDCHAR
STARTCHAR 007B.uni007B
ENCODING 123
SWIDTH 304 0
DWIDTH 6 0
BBX 7 26 -1 -3
BITMAP
0E00
0E00
1800
3800
3000
3000
3000
3000
3000
3000
3000
6000
E000
6000
3000
3000
3000
3000
3000
3000
3000
3000
3800
1800
0E00
0E00
ENDCHAR
STARTCHAR 007C.uni007C
ENCODING 124
SWIDTH 304 0
DWIDTH 6 0
BBX 2 23 2 0
BITMAP
C000
C000
C000
C000
C000
C000
C000
C000
C000
C000
C000
C000
C000
C000
C000
C000
C000
C000
C000
C000
C000
C000
C000
ENDCHAR
STARTCHAR 007D.uni007D
ENCODING 125
SWIDTH 304 0
DWIDTH 6 0
BBX 7 26 0 -3
BITMAP
E000
E000
3000
3800
1800
1800
1800
1800
1800
1800
1800
0C00
0E00
0C00
1800
1800
1800
1800
1800
1800
1800
1800
3800
3000
E000
E000
ENDCHAR
STARTCHAR 007E.uni007E
ENCODING 126
SWIDTH 304 0
DWIDTH 6 0
BBX 6 7 0 8
BITMAP
6400
E400
F400
B400
BC00
9C00
9800
ENDCHAR
STARTCHAR 00A0.uni00A0
ENCODING 160
SWIDTH 281 0
DWIDTH 6 0
BBX 0 0 0 0
BITMAP
ENDCHAR
STARTCHAR 00A1.uni00A1
ENCODING 161
SWIDTH 304 0
DWIDTH 6 0
BBX 4 21 1 -5
BITMAP
6000
F000
6000
0000
0000
6000
6000
6000
6000
6000
6000
6000
6000
6000
6000
6000
6000
6000
6000
6000
6000
ENDCHAR
STARTCHAR 00A2.uni00A2
ENCODING 162
SWIDTH 304 0
DWIDTH 6 0
BBX 6 29 0 -3
BITMAP
3000
3000
3000
3000
3800
7C00
6C00
EC00
CC00
CC00
CC00
C000
C000
C000
C000
C000
C000
C000
CC00
CC00
CC00
EC00
EC00
7C00
3800
3000
3000
3000
3000
ENDCHAR
STARTCHAR 00A3.uni00A3
ENCODING 163
SWIDTH 304 0
DWIDTH 6 0
BBX 6 23 0 0
BITMAP
3000
7800
7800
FC00
CC00
CC00
C000
E000
6000
6000
FC00
FC00
FC00
3000
3000
3000
3000
3400
3400
6C00
FC00
FC00
FC00
ENDCHAR
STARTCHAR 00A4.uni00A4
ENCODING 164
SWIDTH 281 0
DWIDTH 6 0
BBX 7 23 -1 0
BITMAP
1800
3C00
7E00
7600
6000
6000
6000
6000
F800
F800
6000
6000
6000
F800
F800
6000
6000
6000
6000
7600
7E00
3C00
1800
ENDCHAR
STARTCHAR 00A5.uni00A5
ENCODING 165
SWIDTH 304 0
DWIDTH 6 0
BBX 6 23 0 0
BITMAP
CC00
CC00
CC00
CC00
4800
4800
7800
7800
7800
3000
FC00
FC00
3000
3000
FC00
FC00
3000
3000
3000
3000
3000
7800
7800
ENDCHAR
STARTCHAR 00A6.uni00A6
ENCODING 166
SWIDTH 304 0
DWIDTH 6 0
BBX 2 21 2 0
BITMAP
C000
C000
C000
C000
C000
C000
C000
C000
C000
0000
0000
0000
C000
C000
C000
C000
C000
C000
C000
C000
C000
ENDCHAR
STARTCHAR 00A7.uni00A7
ENCODING 167
SWIDTH 304 0
DWIDTH 6 0
BBX 6 23 0 0
BITMAP
3000
7000
7C00
5C00
CC00
C000
F000
F000
F800
D800
CC00
EC00
6C00
3C00
3C00
1C00
1C00
0C00
CC00
FC00
7800
3800
1000
ENDCHAR
STARTCHAR 00A8.uni00A8
ENCODING 168
SWIDTH 304 0
DWIDTH 6 0
BBX 6 2 0 15
BITMAP
CC00
CC00
ENDCHAR
STARTCHAR 00A9.uni00A9
ENCODING 169
SWIDTH 304 0
DWIDTH 6 0
BBX 6 13 0 2
BITMAP
7800
FC00
CC00
CC00
FC00
EC00
EC00
EC00
FC00
CC00
CC00
FC00
7800
ENDCHAR
STARTCHAR 00AA.uni00AA
ENCODING 170
SWIDTH 304 0
DWIDTH 6 0
BBX 4 8 1 7
BITMAP
6000
F000
B000
7000
F000
B000
F000
7000
ENDCHAR
STARTCHAR 00AB.uni00AB
ENCODING 171
SWIDTH 304 0
DWIDTH 6 0
BBX 6 13 0 2
BITMAP
6C00
6C00
6C00
D800
D800
D800
D800
D800
D800
D800
6C00
6C00
6C00
ENDCHAR
STARTCHAR 00AC.uni00AC
ENCODING 172
SWIDTH 304 0
DWIDTH 6 0
BBX 6 6 0 5
BITMAP
FC00
FC00
0C00
0C00
0C00
0C00
ENDCHAR
STARTCHAR 00AD.uni00AD
ENCODING 173
SWIDTH 304 0
DWIDTH 6 0
BBX 4 2 1 7
BITMAP
F000
F000
ENDCHAR
STARTCHAR 00AE.uni00AE
ENCODING 174
SWIDTH 304 0
DWIDTH 6 0
BBX 6 15 0 1
BITMAP
7800
7800
FC00
CC00
CC00
FC00
EC00
FC00
FC00
FC00
CC00
CC00
FC00
7800
7800
ENDCHAR
STARTCHAR 00AF.uni00AF
ENCODING 175
SWIDTH 304 0
DWIDTH 6 0
BBX 6 2 0 20
BITMAP
FC00
FC00
ENDCHAR
STARTCHAR 00B0.uni00B0
ENCODING 176
SWIDTH 304 0
DWIDTH 6 0
BBX 5 6 1 16
BITMAP
2000
7000
D800
D800
7000
2000
ENDCHAR
STARTCHAR 00B1.uni00B1
ENCODING 177
SWIDTH 304 0
DWIDTH 6 0
BBX 6 12 0 4
BITMAP
3000
3000
3000
FC00
FC00
3000
3000
3000
0000
0000
FC00
FC00
ENDCHAR
STARTCHAR 00B2.uni00B2
ENCODING 178
SWIDTH 304 0
DWIDTH 6 0
BBX 3 9 2 9
BITMAP
E000
E000
A000
2000
6000
6000
C000
E000
E000
ENDCHAR
STARTCHAR 00B3.uni00B3
ENCODING 179
SWIDTH 304 0
DWIDTH 6 0
BBX 3 9 2 10
BITMAP
E000
E000
A000
2000
6000
2000
A000
E000
E000
ENDCHAR
STARTCHAR 00B4.uni00B4
ENCODING 180
SWIDTH 304 0
DWIDTH 6 0
BBX 4 6 1 17
BITMAP
3000
3000
6000
6000
C000
C000
ENDCHAR
STARTCHAR 00B5.uni00B5
ENCODING 181
SWIDTH 304 0
DWIDTH 6 0
BBX 6 20 0 -5
BITMAP
CC00
CC00
CC00
CC00
CC00
CC00
CC00
CC00
CC00
CC00
CC00
EC00
FC00
FC00
D800
C000
C000
C000
C000
C000
ENDCHAR
STARTCHAR 00B6.uni00B6
ENCODING 182
SWIDTH 304 0
DWIDTH 6 0
BBX 8 23 -1 0
BITMAP
3F00
7F00
7F00
DB00
DB00
DB00
DB00
DB00
DB00
7B00
7B00
7B00
1B00
1B00
1B00
1B00
1B00
1B00
1B00
1B00
3B00
3B00
3B00
ENDCHAR
STARTCHAR 00B7.uni00B7
ENCODING 183
SWIDTH 304 0
DWIDTH 6 0
BBX 5 5 1 6
BITMAP
2000
7000
F800
7000
2000
ENDCHAR
STARTCHAR 00B8.uni00B8
ENCODING 184
SWIDTH 304 0
DWIDTH 6 0
BBX 4 7 1 -5
BITMAP
6000
6000
6000
3000
F000
F000
E000
ENDCHAR
STARTCHAR 00B9.uni00B9
ENCODING 185
SWIDTH 304 0
DWIDTH 6 0
BBX 5 10 1 9
BITMAP
3000
7000
F000
B000
3000
3000
3000
3000
7800
7800
ENDCHAR
STARTCHAR 00BA.uni00BA
ENCODING 186
SWIDTH 304 0
DWIDTH 6 0
BBX 5 6 1 15
BITMAP
7000
D800
8800
8800
D800
7000
ENDCHAR
STARTCHAR 00BB.uni00BB
ENCODING 187
SWIDTH 304 0
DWIDTH 6 0
BBX 6 13 0 2
BITMAP
D800
D800
D800
6C00
6C00
6C00
6C00
6C00
6C00
6C00
D800
D800
D800
ENDCHAR
STARTCHAR 00BC.uni00BC
ENCODING 188
SWIDTH 304 0
DWIDTH 6 0
BBX 6 23 0 0
BITMAP
7000
7000
F000
B000
3000
3000
3000
3400
7400
7800
0800
1000
1400
2C00
2C00
5C00
5400
B400
BC00
3C00
0C00
0C00
0C00
ENDCHAR
STARTCHAR 00BD.uni00BD
ENCODING 189
SWIDTH 304 0
DWIDTH 6 0
BBX 6 23 0 0
BITMAP
7000
7000
F000
B000
3000
3000
3000
3400
7400
7800
0800
1000
1000
2000
3800
7C00
6C00
8C00
8C00
1800
3000
3C00
3C00
ENDCHAR
STARTCHAR 00BE.uni00BE
ENCODING 190
SWIDTH 304 0
DWIDTH 6 0
BBX 6 23 0 0
BITMAP
6000
F000
F000
B000
3000
6000
3000
B400
F400
6800
0800
1000
1400
2C00
2C00
5C00
5400
B400
BC00
3C00
0C00
0C00
0C00
ENDCHAR
STARTCHAR 00BF.uni00BF
ENCODING 191
SWIDTH 304 0
DWIDTH 6 0
BBX 6 22 0 -5
BITMAP
3000
7800
7800
3000
0000
0000
3000
3000
3000
3800
3C00
1C00
0C00
0C00
0C00
0C00
CC00
CC00
CC00
FC00
7800
3000
ENDCHAR
STARTCHAR 00C0.uni00C0
ENCODING 192
SWIDTH 304 0
DWIDTH 6 0
BBX 7 28 0 0
BITMAP
6000
6000
3000
3000
0000
3800
3800
3800
3800
3800
7C00
6C00
6C00
6C00
6C00
6C00
6C00
6C00
6C00
6C00
FE00
FE00
FE00
C600
C600
C600
C600
C600
ENDCHAR
STARTCHAR 00C1.uni00C1
ENCODING 193
SWIDTH 304 0
DWIDTH 6 0
BBX 7 28 0 0
BITMAP
1800
1800
3000
3000
0000
3800
3800
3800
3800
3800
7C00
6C00
6C00
6C00
6C00
6C00
6C00
6C00
6C00
6C00
FE00
FE00
FE00
C600
C600
C600
C600
C600
ENDCHAR
STARTCHAR 00C2.uni00C2
ENCODING 194
SWIDTH 304 0
DWIDTH 6 0
BBX 7 29 0 0
BITMAP
1000
3800
7C00
EE00
EE00
0000
3800
3800
3800
3800
3800
7C00
6C00
6C00
6C00
6C00
6C00
6C00
6C00
6C00
6C00
FE00
FE00
FE00
C600
C600
C600
C600
C600
ENDCHAR
STARTCHAR 00C3.uni00C3
ENCODING 195
SWIDTH 304 0
DWIDTH 6 0
BBX 7 29 0 0
BITMAP
2600
F600
D600
DE00
C800
0000
3800
3800
3800
3800
3800
7C00
6C00
6C00
6C00
6C00
6C00
6C00
6C00
6C00
6C00
FE00
FE00
FE00
C600
C600
C600
C600
C600
ENDCHAR
STARTCHAR 00C4.uni00C4
ENCODING 196
SWIDTH 304 0
DWIDTH 6 0
BBX 7 27 0 0
BITMAP
6C00
6C00
6C00
0000
3800
3800
3800
3800
3800
7C00
6C00
6C00
6C00
6C00
6C00
6C00
6C00
6C00
6C00
FE00
FE00
FE00
C600
C600
C600
C600
C600
ENDCHAR
STARTCHAR 00C5.uni00C5
ENCODING 197
SWIDTH 304 0
DWIDTH 6 0
BBX 7 29 0 0
BITMAP
1000
3800
6C00
3800
1000
0000
3800
3800
3800
3800
3800
7C00
6C00
6C00
6C00
6C00
6C00
6C00
6C00
6C00
6C00
FE00
FE00
FE00
C600
C600
C600
C600
C600
ENDCHAR
STARTCHAR 00C6.uni00C6
ENCODING 198
SWIDTH 304 0
DWIDTH 6 0
BBX 6 23 0 0
BITMAP
3C00
3C00
3C00
3800
3800
7800
7800
7800
7800
5C00
5C00
5C00
5C00
D800
D800
D800
F800
F800
F800
D800
DC00
DC00
DC00
ENDCHAR
STARTCHAR 00C7.uni00C7
ENCODING 199
SWIDTH 304 0
DWIDTH 6 0
BBX 6 29 0 -6
BITMAP
3000
7800
FC00
EC00
CC00
CC00
CC00
CC00
C000
C000
C000
C000
C000
C000
C000
CC00
CC00
CC00
CC00
EC00
FC00
7800
3000
3000
1800
0C00
6C00
6C00
3800
ENDCHAR
STARTCHAR 00C8.uni00C8
ENCODING 200
SWIDTH 304 0
DWIDTH 6 0
BBX 6 28 0 0
BITMAP
6000
6000
3000
3000
0000
FC00
FC00
C000
C000
C000
C000
C000
C000
C000
F800
F800
C000
C000
C000
C000
C000
C000
C000
C000
C000
C000
FC00
FC00
ENDCHAR
STARTCHAR 00C9.uni00C9
ENCODING 201
SWIDTH 304 0
DWIDTH 6 0
BBX 6 28 0 0
BITMAP
1800
1800
3000
3000
0000
FC00
FC00
C000
C000
C000
C000
C000
C000
C000
F800
F800
C000
C000
C000
C000
C000
C000
C000
C000
C000
C000
FC00
FC00
ENDCHAR
STARTCHAR 00CA.uni00CA
ENCODING 202
SWIDTH 304 0
DWIDTH 6 0
BBX 7 29 0 0
BITMAP
1000
3800
7C00
EE00
EE00
0000
FC00
FC00
C000
C000
C000
C000
C000
C000
C000
F800
F800
C000
C000
C000
C000
C000
C000
C000
C000
C000
C000
FC00
FC00
ENDCHAR
STARTCHAR 00CB.uni00CB
ENCODING 203
SWIDTH 304 0
DWIDTH 6 0
BBX 6 27 0 0
BITMAP
6C00
6C00
0000
0000
FC00
FC00
C000
C000
C000
C000
C000
C000
C000
F800
F800
C000
C000
C000
C000
C000
C000
C000
C000
C000
C000
FC00
FC00
ENDCHAR
STARTCHAR 00CC.uni00CC
ENCODING 204
SWIDTH 304 0
DWIDTH 6 0
BBX 6 28 0 0
BITMAP
6000
6000
3000
3000
0000
FC00
FC00
3000
3000
3000
3000
3000
3000
3000
3000
3000
3000
3000
3000
3000
3000
3000
3000
3000
3000
3000
FC00
FC00
ENDCHAR
STARTCHAR 00CD.uni00CD
ENCODING 205
SWIDTH 304 0
DWIDTH 6 0
BBX 6 28 0 0
BITMAP
1800
1800
3000
3000
0000
FC00
FC00
3000
3000
3000
3000
3000
3000
3000
3000
3000
3000
3000
3000
3000
3000
3000
3000
3000
3000
3000
FC00
FC00
ENDCHAR
STARTCHAR 00CE.uni00CE
ENCODING 206
SWIDTH 304 0
DWIDTH 6 0
BBX 7 28 -1 0
BITMAP
1000
3800
6C00
C600
0000
7E00
7E00
1800
1800
1800
1800
1800
1800
1800
1800
1800
1800
1800
1800
1800
1800
1800
1800
1800
1800
1800
7E00
7E00
ENDCHAR
STARTCHAR 00CF.uni00CF
ENCODING 207
SWIDTH 304 0
DWIDTH 6 0
BBX 6 26 0 0
BITMAP
D800
D800
0000
FC00
FC00
3000
3000
3000
3000
3000
3000
3000
3000
3000
3000
3000
3000
3000
3000
3000
3000
3000
3000
3000
FC00
FC00
ENDCHAR
STARTCHAR 00D0.uni00D0
ENCODING 208
SWIDTH 304 0
DWIDTH 6 0
BBX 7 23 -1 0
BITMAP
7800
7C00
7E00
6E00
6E00
6600
6600
6600
6600
6600
F600
F600
F600
6600
6600
6600
6600
6600
6E00
6E00
7E00
7C00
7800
ENDCHAR
STARTCHAR 00D1.uni00D1
ENCODING 209
SWIDTH 304 0
DWIDTH 6 0
BBX 7 29 0 0
BITMAP
2600
7600
D600
DC00
C800
0000
CC00
CC00
CC00
CC00
EC00
EC00
EC00
EC00
FC00
FC00
DC00
DC00
DC00
DC00
CC00
CC00
CC00
CC00
CC00
CC00
CC00
CC00
CC00
ENDCHAR
STARTCHAR 00D2.uni00D2
ENCODING 210
SWIDTH 304 0
DWIDTH 6 0
BBX 6 28 0 0
BITMAP
6000
6000
3000
3000
0000
3000
7800
7800
FC00
CC00
CC00
CC00
CC00
CC00
CC00
CC00
CC00
CC00
CC00
CC00
CC00
CC00
CC00
CC00
CC00
FC00
7800
3000
ENDCHAR
STARTCHAR 00D3.uni00D3
ENCODING 211
SWIDTH 304 0
DWIDTH 6 0
BBX 6 28 0 0
BITMAP
1800
1800
3000
3000
0000
3000
7800
7800
FC00
CC00
CC00
CC00
CC00
CC00
CC00
CC00
CC00
CC00
CC00
CC00
CC00
CC00
CC00
CC00
CC00
FC00
7800
3000
ENDCHAR
STARTCHAR 00D4.uni00D4
ENCODING 212
SWIDTH 304 0
DWIDTH 6 0
BBX 6 28 0 0
BITMAP
3000
7800
FC00
CC00
0000
3000
7800
7800
FC00
CC00
CC00
CC00
CC00
CC00
CC00
CC00
CC00
CC00
CC00
CC00
CC00
CC00
CC00
CC00
CC00
FC00
7800
3000
ENDCHAR
STARTCHAR 00D5.uni00D5
ENCODING 213
SWIDTH 304 0
DWIDTH 6 0
BBX 6 28 0 0
BITMAP
6C00
6C00
D800
D800
0000
3000
7800
7800
FC00
CC00
CC00
CC00
CC00
CC00
CC00
CC00
CC00
CC00
CC00
CC00
CC00
CC00
CC00
CC00
CC00
FC00
7800
3000
ENDCHAR
STARTCHAR 00D6.uni00D6
ENCODING 214
SWIDTH 304 0
DWIDTH 6 0
BBX 6 26 0 0
BITMAP
CC00
CC00
0000
3000
7800
7800
FC00
CC00
CC00
CC00
CC00
CC00
CC00
CC00
CC00
CC00
CC00
CC00
CC00
CC00
CC00
CC00
CC00
FC00
7800
3000
ENDCHAR
STARTCHAR 00D7.uni00D7
ENCODING 215
SWIDTH 304 0
DWIDTH 6 0
BBX 6 12 0 2
BITMAP
CC00
CC00
CC00
7800
7800
3000
3000
7800
7800
CC00
CC00
CC00
ENDCHAR
STARTCHAR 00D8.uni00D8
ENCODING 216
SWIDTH 304 0
DWIDTH 6 0
BBX 6 15 0 0
BITMAP
3400
7C00
7800
FC00
DC00
DC00
DC00
DC00
EC00
EC00
EC00
EC00
7800
F800
B000
ENDCHAR
STARTCHAR 00D9.uni00D9
ENCODING 217
SWIDTH 304 0
DWIDTH 6 0
BBX 6 28 0 0
BITMAP
6000
6000
3000
3000
0000
CC00
CC00
CC00
CC00
CC00
CC00
CC00
CC00
CC00
CC00
CC00
CC00
CC00
CC00
CC00
CC00
CC00
CC00
CC00
FC00
7800
7800
3000
ENDCHAR
STARTCHAR 00DA.uni00DA
ENCODING 218
SWIDTH 304 0
DWIDTH 6 0
BBX 6 28 0 0
BITMAP
1800
1800
3000
3000
0000
CC00
CC00
CC00
CC00
CC00
CC00
CC00
CC00
CC00
CC00
CC00
CC00
CC00
CC00
CC00
CC00
CC00
CC00
CC00
FC00
7800
7800
3000
ENDCHAR
STARTCHAR 00DB.uni00DB
ENCODING 219
SWIDTH 304 0
DWIDTH 6 0
BBX 7 28 0 0
BITMAP
6600
6600
EC00
CC00
0000
CC00
CC00
CC00
CC00
CC00
CC00
CC00
CC00
CC00
CC00
CC00
CC00
CC00
CC00
CC00
CC00
CC00
CC00
CC00
FC00
7800
7800
3000
ENDCHAR
STARTCHAR 00DC.uni00DC
ENCODING 220
SWIDTH 304 0
DWIDTH 6 0
BBX 6 26 0 0
BITMAP
CC00
CC00
0000
CC00
CC00
CC00
CC00
CC00
CC00
CC00
CC00
CC00
CC00
CC00
CC00
CC00
CC00
CC00
CC00
CC00
CC00
CC00
FC00
7800
7800
3000
ENDCHAR
STARTCHAR 00DD.uni00DD
ENCODING 221
SWIDTH 304 0
DWIDTH 6 0
BBX 6 28 0 0
BITMAP
1800
1800
3000
3000
0000
CC00
CC00
CC00
4800
7800
7800
7800
3000
3000
3000
3000
3000
3000
3000
3000
3000
3000
3000
3000
3000
3000
7800
7800
ENDCHAR
STARTCHAR 00DE.uni00DE
ENCODING 222
SWIDTH 304 0
DWIDTH 6 0
BBX 6 23 0 0
BITMAP
F000
F000
C000
C000
C000
F800
FC00
FC00
DC00
CC00
CC00
CC00
CC00
CC00
DC00
FC00
FC00
F800
C000
C000
C000
F000
F000
ENDCHAR
STARTCHAR 00DF.uni00DF
ENCODING 223
SWIDTH 304 0
DWIDTH 6 0
BBX 6 23 0 0
BITMAP
3000
7800
7800
DC00
CC00
CC00
CC00
DC00
F800
F800
FC00
DC00
CC00
CC00
CC00
CC00
CC00
CC00
CC00
CC00
DC00
DC00
D800
ENDCHAR
STARTCHAR 00E0.uni00E0
ENCODING 224
SWIDTH 304 0
DWIDTH 6 0
BBX 6 21 0 0
BITMAP
6000
6000
3000
3000
0000
0000
3800
7C00
FC00
CC00
8C00
3C00
7C00
7C00
CC00
CC00
CC00
CC00
FC00
7C00
3400
ENDCHAR
STARTCHAR 00E1.uni00E1
ENCODING 225
SWIDTH 304 0
DWIDTH 6 0
BBX 6 21 0 0
BITMAP
1800
1800
3000
3000
0000
0000
3800
7C00
FC00
CC00
8C00
3C00
7C00
7C00
CC00
CC00
CC00
CC00
FC00
7C00
3400
ENDCHAR
STARTCHAR 00E2.uni00E2
ENCODING 226
SWIDTH 304 0
DWIDTH 6 0
BBX 7 22 0 0
BITMAP
1000
3800
7C00
EE00
EE00
0000
0000
3800
7C00
FC00
CC00
8C00
3C00
7C00
7C00
CC00
CC00
CC00
CC00
FC00
7C00
3400
ENDCHAR
STARTCHAR 00E3.uni00E3
ENCODING 227
SWIDTH 304 0
DWIDTH 6 0
BBX 7 21 0 0
BITMAP
6600
F600
D600
DE00
CC00
0000
3800
7C00
FC00
CC00
8C00
3C00
7C00
7C00
CC00
CC00
CC00
CC00
FC00
7C00
3400
ENDCHAR
STARTCHAR 00E4.uni00E4
ENCODING 228
SWIDTH 304 0
DWIDTH 6 0
BBX 6 19 0 0
BITMAP
6C00
6C00
0000
0000
3800
7C00
FC00
CC00
8C00
3C00
7C00
7C00
CC00
CC00
CC00
CC00
FC00
7C00
3400
ENDCHAR
STARTCHAR 00E5.uni00E5
ENCODING 229
SWIDTH 304 0
DWIDTH 6 0
BBX 6 21 0 0
BITMAP
3000
4800
4800
3000
0000
0000
3800
7C00
FC00
CC00
8C00
3C00
7C00
7C00
CC00
CC00
CC00
CC00
FC00
7C00
3400
ENDCHAR
STARTCHAR 00E6.uni00E6
ENCODING 230
SWIDTH 304 0
DWIDTH 6 0
BBX 6 15 0 0
BITMAP
6C00
FC00
B400
B000
3000
7C00
7C00
FC00
B000
B000
B000
B400
F400
FC00
6C00
ENDCHAR
STARTCHAR 00E7.uni00E7
ENCODING 231
SWIDTH 304 0
DWIDTH 6 0
BBX 6 21 0 -6
BITMAP
3000
7800
FC00
EC00
CC00
CC00
C000
C000
C000
CC00
CC00
EC00
FC00
7800
3000
1800
1800
0C00
6C00
6C00
3800
ENDCHAR
STARTCHAR 00E8.uni00E8
ENCODING 232
SWIDTH 304 0
DWIDTH 6 0
BBX 6 21 0 0
BITMAP
6000
6000
3000
3000
0000
0000
3800
7C00
FC00
CC00
CC00
CC00
FC00
FC00
FC00
C000
C000
EC00
FC00
7C00
3800
ENDCHAR
STARTCHAR 00E9.uni00E9
ENCODING 233
SWIDTH 304 0
DWIDTH 6 0
BBX 6 21 0 0
BITMAP
1800
1800
3000
3000
0000
0000
3800
7C00
FC00
CC00
CC00
CC00
FC00
FC00
FC00
C000
C000
EC00
FC00
7C00
3800
ENDCHAR
STARTCHAR 00EA.uni00EA
ENCODING 234
SWIDTH 304 0
DWIDTH 6 0
BBX 7 22 0 0
BITMAP
1000
3800
7C00
EE00
EE00
0000
0000
3800
7C00
FC00
CC00
CC00
CC00
FC00
FC00
FC00
C000
C000
EC00
FC00
7C00
3800
ENDCHAR
STARTCHAR 00EB.uni00EB
ENCODING 235
SWIDTH 304 0
DWIDTH 6 0
BBX 6 19 0 0
BITMAP
6C00
6C00
0000
0000
3800
7C00
FC00
CC00
CC00
CC00
FC00
FC00
FC00
C000
C000
EC00
FC00
7C00
3800
ENDCHAR
STARTCHAR 00EC.uni00EC
ENCODING 236
SWIDTH 304 0
DWIDTH 6 0
BBX 6 21 0 0
BITMAP
6000
6000
3000
3000
0000
0000
7000
F000
B000
3000
3000
3000
3000
3000
3000
3000
3000
3000
3000
FC00
FC00
ENDCHAR
STARTCHAR 00ED.uni00ED
ENCODING 237
SWIDTH 304 0
DWIDTH 6 0
BBX 6 21 0 0
BITMAP
1800
1800
3000
3000
0000
0000
7000
F000
B000
3000
3000
3000
3000
3000
3000
3000
3000
3000
3000
FC00
FC00
ENDCHAR
STARTCHAR 00EE.uni00EE
ENCODING 238
SWIDTH 304 0
DWIDTH 6 0
BBX 7 22 -1 0
BITMAP
1000
3800
7C00
EE00
EE00
0000
0000
3800
7800
5800
1800
1800
1800
1800
1800
1800
1800
1800
1800
1800
7E00
7E00
ENDCHAR
STARTCHAR 00EF.uni00EF
ENCODING 239
SWIDTH 304 0
DWIDTH 6 0
BBX 6 19 0 0
BITMAP
D800
D800
0000
0000
7000
F000
B000
3000
3000
3000
3000
3000
3000
3000
3000
3000
3000
FC00
FC00
ENDCHAR
STARTCHAR 00F0.uni00F0
ENCODING 240
SWIDTH 304 0
DWIDTH 6 0
BBX 6 23 0 0
BITMAP
0C00
1C00
7000
F000
B800
F800
4C00
0C00
1C00
3C00
7C00
6C00
4C00
CC00
CC00
CC00
CC00
CC00
4C00
6C00
7C00
3800
3800
ENDCHAR
STARTCHAR 00F1.uni00F1
ENCODING 241
SWIDTH 304 0
DWIDTH 6 0
BBX 7 21 0 0
BITMAP
6600
F600
D600
DE00
CC00
0000
D800
F800
FC00
EC00
CC00
CC00
CC00
CC00
CC00
CC00
CC00
CC00
CC00
CC00
CC00
ENDCHAR
STARTCHAR 00F2.uni00F2
ENCODING 242
SWIDTH 304 0
DWIDTH 6 0
BBX 6 21 0 0
BITMAP
6000
6000
3000
3000
0000
0000
3000
7800
FC00
FC00
CC00
CC00
CC00
CC00
CC00
CC00
CC00
FC00
FC00
7800
3000
ENDCHAR
STARTCHAR 00F3.uni00F3
ENCODING 243
SWIDTH 304 0
DWIDTH 6 0
BBX 6 21 0 0
BITMAP
1800
1800
3000
3000
0000
0000
3000
7800
FC00
FC00
CC00
CC00
CC00
CC00
CC00
CC00
CC00
FC00
FC00
7800
3000
ENDCHAR
STARTCHAR 00F4.uni00F4
ENCODING 244
SWIDTH 304 0
DWIDTH 6 0
BBX 7 22 0 0
BITMAP
1000
3800
7C00
EE00
EE00
0000
0000
3000
7800
FC00
FC00
CC00
CC00
CC00
CC00
CC00
CC00
CC00
FC00
FC00
7800
3000
ENDCHAR
STARTCHAR 00F5.uni00F5
ENCODING 245
SWIDTH 304 0
DWIDTH 6 0
BBX 6 21 0 0
BITMAP
6C00
6C00
D800
D800
0000
0000
3000
7800
FC00
FC00
CC00
CC00
CC00
CC00
CC00
CC00
CC00
FC00
FC00
7800
3000
ENDCHAR
STARTCHAR 00F6.uni00F6
ENCODING 246
SWIDTH 304 0
DWIDTH 6 0
BBX 6 19 0 0
BITMAP
CC00
CC00
0000
0000
3000
7800
FC00
FC00
CC00
CC00
CC00
CC00
CC00
CC00
CC00
FC00
FC00
7800
3000
ENDCHAR
STARTCHAR 00F7.uni00F7
ENCODING 247
SWIDTH 304 0
DWIDTH 6 0
BBX 6 11 0 3
BITMAP
3000
3000
0000
0000
FC00
FC00
FC00
0000
0000
3000
3000
ENDCHAR
STARTCHAR 00F8.uni00F8
ENCODING 248
SWIDTH 304 0
DWIDTH 6 0
BBX 6 15 0 0
BITMAP
3C00
3800
7C00
EC00
CC00
CC00
DC00
DC00
FC00
EC00
EC00
EC00
7C00
B800
B800
ENDCHAR
STARTCHAR 00F9.uni00F9
ENCODING 249
SWIDTH 304 0
DWIDTH 6 0
BBX 6 21 0 0
BITMAP
6000
6000
3000
3000
0000
0000
CC00
CC00
CC00
CC00
CC00
CC00
CC00
CC00
CC00
CC00
CC00
EC00
FC00
7C00
3400
ENDCHAR
STARTCHAR 00FA.uni00FA
ENCODING 250
SWIDTH 304 0
DWIDTH 6 0
BBX 6 21 0 0
BITMAP
1800
1800
3000
3000
0000
0000
CC00
CC00
CC00
CC00
CC00
CC00
CC00
CC00
CC00
CC00
CC00
EC00
FC00
7C00
3400
ENDCHAR
STARTCHAR 00FB.uni00FB
ENCODING 251
SWIDTH 304 0
DWIDTH 6 0
BBX 6 21 0 0
BITMAP
6C00
6C00
D800
D800
0000
0000
CC00
CC00
CC00
CC00
CC00
CC00
CC00
CC00
CC00
CC00
CC00
EC00
FC00
7C00
3400
ENDCHAR
STARTCHAR 00FC.uni00FC
ENCODING 252
SWIDTH 304 0
DWIDTH 6 0
BBX 6 19 0 0
BITMAP
CC00
CC00
0000
0000
CC00
CC00
CC00
CC00
CC00
CC00
CC00
CC00
CC00
CC00
CC00
EC00
FC00
7C00
3400
ENDCHAR
STARTCHAR 00FD.uni00FD
ENCODING 253
SWIDTH 304 0
DWIDTH 6 0
BBX 6 27 0 -6
BITMAP
6000
6000
3000
3000
0000
0000
CC00
CC00
CC00
CC00
CC00
CC00
EC00
EC00
6C00
6800
7800
7800
3800
3800
3800
1800
1800
1800
7800
7000
7000
ENDCHAR
STARTCHAR 00FE.uni00FE
ENCODING 254
SWIDTH 304 0
DWIDTH 6 0
BBX 6 15 0 0
BITMAP
F000
F000
C000
C000
F800
FC00
CC00
CC00
FC00
F800
C000
C000
C000
F000
F000
ENDCHAR
STARTCHAR 00FF.uni00FF
ENCODING 255
SWIDTH 304 0
DWIDTH 6 0
BBX 6 25 0 -6
BITMAP
CC00
CC00
0000
0000
CC00
CC00
CC00
CC00
CC00
CC00
EC00
EC00
6C00
6800
7800
7800
3800
3800
3800
1800
1800
1800
7800
7000
7000
ENDCHAR
ENDFONT
